HIERARCHY
ROOT Hips
{
	OFFSET 0.0000 0.0000 0.0000
	CHANNELS 6 Xposition Yposition Zposition Zrotation Xrotation Yrotation
	JOINT Ab
	{
		OFFSET -0.0000 8.0846 -0.0000
		CHANNELS 3 Zrotation Xrotation Yrotation
		JOINT Chest
		{
			OFFSET -0.0000 25.7002 -0.0000
			CHANNELS 3 Zrotation Xrotation Yrotation
			JOINT Neck
			{
				OFFSET -0.0000 25.7002 0.0000
				CHANNELS 3 Zrotation Xrotation Yrotation
				JOINT Head
				{
					OFFSET -0.0000 10.7556 0.0000
					CHANNELS 3 Zrotation Xrotation Yrotation
					End Site
					{
						OFFSET -0.0000 16.6222 0.0000
					}
				}
			}
			JOINT LeftCollar
			{
				OFFSET -0.0000 25.7002 0.0000
				CHANNELS 3 Zrotation Xrotation Yrotation
				JOINT LeftShoulder
				{
					OFFSET 19.5556 -0.0000 0.0000
					CHANNELS 3 Zrotation Xrotation Yrotation
					JOINT LeftElbow
					{
						OFFSET 27.2833 0.0000 0.0000
						CHANNELS 3 Zrotation Xrotation Yrotation
						JOINT LeftWrist
						{
							OFFSET 23.7914 0.0000 0.0000
							CHANNELS 3 Zrotation Xrotation Yrotation
							End Site
							{
								OFFSET 0.0000 -14.6667 0.0000
							}
						}
					}
				}
			}
			JOINT RightCollar
			{
				OFFSET -0.0000 25.7002 0.0000
				CHANNELS 3 Zrotation Xrotation Yrotation
				JOINT RightShoulder
				{
					OFFSET -19.5556 0.0000 0.0000
					CHANNELS 3 Zrotation Xrotation Yrotation
					JOINT RightElbow
					{
						OFFSET -27.2833 0.0000 0.0000
						CHANNELS 3 Zrotation Xrotation Yrotation
						JOINT RightWrist
						{
							OFFSET -23.7914 0.0000 0.0000
							CHANNELS 3 Zrotation Xrotation Yrotation
							End Site
							{
								OFFSET -0.0000 -14.6667 0.0000
							}
						}
					}
				}
			}
		}
	}
	JOINT LeftHip
	{
		OFFSET 11.7333 0.0000 0.0000
		CHANNELS 3 Zrotation Xrotation Yrotation
		JOINT LeftKnee
		{
			OFFSET -0.0000 -39.5330 0.0000
			CHANNELS 3 Zrotation Xrotation Yrotation
			JOINT LeftAnkle
			{
				OFFSET -0.0000 -43.0504 0.0000
				CHANNELS 3 Zrotation Xrotation Yrotation
				End Site
				{
					OFFSET -0.0000 -4.8889 16.6222
				}
			}
		}
	}
	JOINT RightHip
	{
		OFFSET -11.7333 0.0000 0.0000
		CHANNELS 3 Zrotation Xrotation Yrotation
		JOINT RightKnee
		{
			OFFSET -0.0000 -39.5330 0.0000
			CHANNELS 3 Zrotation Xrotation Yrotation
			JOINT RightAnkle
			{
				OFFSET -0.0000 -43.0504 0.0000
				CHANNELS 3 Zrotation Xrotation Yrotation
				End Site
				{
					OFFSET -0.0000 -4.8889 16.6222
				}
			}
		}
	}
}
MOTION
Frames: 19
Frame Time: 0.010000
-10.9099 84.8193 146.4691 5.0098 345.2342 182.1047 5.2622 18.6610 348.4804 4.4704 2.8292 349.1942 19.2894 326.1458 14.5571 349.0364 10.6601 9.8111 339.2283 356.7574 17.5509 14.6525 29.8861 281.2904 74.5221 340.0586 334.8647 90.5918 4.1127 36.6269 17.8225 358.2083 347.6382 69.6371 34.6978 334.6244 348.9894 356.9264 32.1122 275.3004 341.4665 41.6765 5.2345 6.9829 355.1575 356.6038 20.7222 352.2308 357.0273 328.8321 31.9138 0.0616 298.9839 8.2573 18.7251 67.4231 334.7514 359.2096 337.8222 342.9573 
-10.4931 85.2159 144.7273 5.3147 343.6027 182.9202 5.5101 17.3454 348.0930 5.4087 2.4087 348.7849 19.7636 326.5884 15.0358 348.2860 10.9412 10.3424 339.5819 356.8408 17.3838 15.6173 29.3895 281.0493 75.9549 340.2560 335.5383 90.2388 3.7738 36.9412 16.7629 358.2653 347.0992 70.0478 34.0735 332.8656 349.0476 356.8532 32.8836 275.2787 341.5236 40.6312 5.8266 6.4502 356.3367 357.1728 19.8998 352.2608 356.8900 332.2560 31.4056 359.2341 298.1649 7.6692 21.2212 67.5566 333.0935 359.2530 338.7216 342.4931 
-10.2274 85.4851 142.8636 5.3957 342.3382 183.5206 5.9486 15.8633 347.5732 5.5888 2.7148 348.2354 20.4812 326.8762 15.6292 347.6670 10.9837 10.8317 339.8633 356.9220 17.1252 16.7782 28.5854 281.2999 77.1576 340.4141 336.1906 89.9381 3.0809 37.1531 15.5769 358.3463 346.6043 70.8315 33.7761 331.1821 348.8200 356.6414 33.8015 275.2303 341.5285 39.5986 6.1067 6.4255 357.5436 357.6543 18.9312 352.2850 355.6988 335.5580 30.2811 357.9833 297.3680 7.2095 24.5855 67.1918 330.0960 358.8085 339.8132 342.7163 
-9.9347 85.7128 140.6332 5.3091 342.3687 183.6462 6.0060 15.2978 347.2524 5.8213 3.7863 347.8375 21.2378 326.9441 16.2954 347.1520 10.7841 11.3362 339.8712 356.9502 17.1009 18.1823 27.4264 281.3759 78.2284 340.6643 336.9599 89.5564 2.1161 37.1376 14.7035 358.3997 346.5261 70.7380 32.9949 330.1694 349.6268 356.9548 34.5771 275.7186 341.1568 40.1052 6.1866 8.0623 359.1166 358.6203 17.6553 351.4584 348.2863 336.5943 27.1045 356.8826 296.9496 6.7648 27.5300 66.7811 327.8076 358.8126 340.8495 342.9194 
-9.7425 85.9389 138.7109 5.0619 341.9755 183.6813 6.2099 14.7149 346.9553 5.7765 4.3249 347.5128 21.6545 327.0377 16.7561 346.7282 10.4484 11.7024 340.0882 357.0005 16.9597 17.9574 26.9061 282.3341 79.1043 340.4905 336.6182 89.4918 1.8075 37.0657 13.7858 358.4540 346.0398 69.6585 32.8079 330.1977 351.2176 357.5813 35.5494 276.2961 340.7847 41.4874 5.8208 8.7453 0.2252 359.3992 17.0062 351.8910 345.7903 339.5620 26.2570 355.4937 295.8586 6.1038 29.8518 65.9709 325.6961 358.6612 341.6243 342.9936 
-9.5723 86.1364 136.7762 4.7582 341.7533 183.5274 6.3385 14.4505 346.8357 5.7782 4.7042 347.3809 21.9964 327.0667 17.1757 346.2660 10.1925 12.0417 340.0258 356.9942 16.9158 18.0464 26.6544 283.0564 79.6974 340.1629 336.2523 89.7267 1.6917 36.6919 12.9951 358.5052 345.8111 70.0476 33.3178 329.9363 351.7190 357.5795 36.1657 276.5392 340.4879 42.9964 5.4142 9.6190 0.5335 359.7876 16.3454 352.5690 345.3333 343.4341 26.4311 353.4748 294.7077 4.4670 30.2615 65.4133 325.9391 359.1943 342.0216 343.0229 
-9.4174 86.2849 134.8607 4.5156 341.5005 183.1724 6.4841 14.2505 346.8983 5.8644 4.9716 347.4398 22.0220 327.0729 17.4617 345.9240 9.9914 12.3530 339.7766 356.9547 16.8480 18.0323 26.7501 283.8374 79.9386 339.6937 335.5365 90.3081 2.2221 36.6442 12.2218 358.5663 345.5555 70.6953 33.8638 330.6446 351.8933 357.5283 35.7589 276.9426 339.8155 45.4125 5.0471 10.2846 0.3936 359.8913 15.7911 353.4050 346.0720 347.3611 27.3262 353.2554 295.7091 4.3903 29.9617 64.3857 326.6268 359.4786 341.5286 342.7637 
-9.2471 86.3926 133.0089 4.3598 341.1960 182.7350 6.7182 14.1369 347.0087 5.9782 5.0716 347.5659 21.7741 327.1147 17.6289 345.6337 9.7810 12.6137 339.6240 356.9528 16.8948 17.9121 27.0531 284.3793 79.9835 339.1697 334.8563 90.7695 2.6747 36.6856 11.7616 358.6013 345.7004 71.4071 34.3970 330.7732 351.5997 357.2759 36.1183 277.1102 339.5669 46.0173 4.8873 10.7259 0.0043 359.6550 15.8004 354.1991 341.7378 349.1912 27.6833 352.6397 296.1538 3.6734 28.7353 63.3089 328.0761 359.5387 341.1156 342.7608 
-9.0379 86.4318 131.1576 4.2275 340.9779 182.2219 6.9442 14.1250 347.1665 5.9224 5.2000 347.7485 21.8268 327.1746 17.8781 345.2214 9.6601 12.8419 339.6244 356.9308 17.1636 18.1479 27.7464 284.3641 79.9839 338.7417 334.4187 91.1698 3.1067 36.9412 11.6043 358.6044 345.9879 71.6392 34.3997 331.0844 351.3736 357.1123 36.6053 276.4040 339.4237 45.5673 4.6281 10.6603 0.0537 359.5640 16.6201 354.6187 343.7340 352.7331 28.5611 352.1897 296.9046 3.0136 27.2692 62.1128 329.8450 358.8771 340.6213 342.6394 
-8.8380 86.4172 129.4389 3.9915 340.6797 181.6818 7.0001 14.2673 347.5097 5.8825 5.0093 348.1249 22.1889 327.3071 18.1665 344.5257 9.6790 13.0495 339.9321 356.9760 17.2351 17.5266 28.7594 284.5408 79.5331 338.1956 333.2426 91.8560 4.1465 37.6171 11.4624 358.6131 346.4233 72.3594 34.4447 331.3004 350.4370 356.6244 37.0150 275.8940 339.3249 44.1109 4.3039 9.7792 359.8087 359.0178 18.5593 354.8848 343.5550 354.3565 29.8153 352.1917 297.7879 2.6289 25.7235 60.5593 331.3981 0.2902 339.8121 342.6110 
-8.6203 86.3663 127.7142 3.6580 340.3346 181.1246 6.9323 14.2705 347.8301 5.8748 5.0127 348.4361 22.1823 327.4418 18.2736 344.2664 9.3466 13.1665 340.1203 356.9395 17.7439 18.1519 29.3845 283.9181 79.0683 338.0172 333.2183 91.5905 3.2034 37.9407 11.2605 358.6585 346.6694 73.2869 35.0871 331.7081 349.1115 356.0156 37.1746 274.7416 339.2117 41.5854 4.1968 8.9231 0.2993 358.6523 21.2375 354.8740 343.9305 355.9038 30.4130 352.5548 298.6810 2.2191 23.7102 58.9347 333.0065 1.0848 339.5111 342.9302 
-8.3708 86.2540 125.9113 3.5360 340.3220 180.6648 7.1372 14.4026 348.0082 5.6960 5.4225 348.6354 22.0982 327.3900 18.4369 344.4636 8.9704 13.3298 340.3301 356.9116 18.1110 17.9612 30.6198 284.1153 78.2955 337.6977 332.1897 91.8191 3.7150 38.7547 11.4476 358.6689 347.0017 73.9257 35.4196 332.2860 347.5635 355.3490 37.5593 273.3508 339.1051 39.4053 4.3982 8.1081 0.2334 357.2884 24.1794 355.3789 343.6900 355.5831 29.4879 353.4814 300.0972 2.1242 21.6441 57.1374 335.0715 1.6010 339.0302 342.6366 
-8.0675 86.0653 124.1915 3.3164 340.3465 180.1747 7.0720 14.7020 348.2697 5.7157 5.5117 348.9028 22.0673 327.7268 18.5355 344.2655 8.3012 13.3785 340.4371 356.8433 18.6819 17.9298 31.9457 283.9620 77.5506 337.4805 331.6148 91.7190 2.8422 39.2333 12.1980 358.5524 346.9504 73.7800 35.9407 332.9835 345.9717 354.6564 38.4616 272.4148 339.0686 37.9578 4.6364 6.9888 0.2333 355.9280 27.6834 355.7545 345.7269 355.6044 28.2080 354.3235 301.2950 1.6733 19.3403 55.4803 336.8059 2.3650 338.7576 342.7041 
-7.7651 85.7873 122.5995 3.1837 340.4301 179.8123 7.0932 15.0096 348.4938 5.7561 5.6082 349.1440 22.0426 327.9343 18.6420 344.1443 7.6939 13.4489 340.3125 356.7101 19.2700 17.9743 32.9299 283.9320 76.8703 337.4200 331.2325 91.5675 2.1418 39.4585 13.6284 358.1868 345.0794 70.7181 38.3049 336.2800 345.6110 354.6855 38.7245 270.5402 338.7687 36.4933 4.8263 5.5988 1.1697 355.3397 31.4144 355.3239 347.1256 355.2978 27.5061 355.0754 302.4078 0.8973 16.8489 54.0296 339.0776 3.4442 338.4918 342.7220 
-7.4467 85.4961 121.0236 3.1046 340.5082 179.4152 7.1897 15.3263 348.6465 5.8155 5.7667 349.3181 21.6822 328.0979 18.6734 344.4641 6.8884 13.5175 340.4981 356.6531 20.0463 17.2151 34.2146 284.2987 75.7690 337.2360 330.0731 91.9868 2.0505 39.2168 13.3133 358.3726 346.6704 73.5412 37.4434 335.8847 342.6605 353.1252 39.2921 269.5160 338.0734 35.7047 5.1701 3.9221 1.0744 353.6084 35.5347 355.5632 346.9432 354.1023 27.9392 356.3286 304.0276 0.2631 14.3102 52.6458 341.7267 4.7207 338.2430 343.0441 
-7.0803 85.2158 119.5363 3.1253 340.3141 178.9975 7.3435 15.4227 348.6990 5.9926 5.9644 349.3719 20.6471 328.1404 18.5162 345.6022 5.8763 13.5551 340.5063 356.5274 20.7150 16.2587 35.4091 284.8514 74.3127 337.0556 328.8006 92.5667 2.0784 38.2970 14.0000 358.2959 346.8392 73.2062 37.7463 337.5765 341.0085 352.5197 39.6955 267.5566 337.8225 34.5244 5.5077 2.0412 0.9216 351.3918 40.1001 356.0459 346.9937 353.4695 28.6774 357.5896 305.7513 359.6884 11.9360 51.4593 344.3783 6.3185 338.0705 343.5075 
-6.7842 84.9007 118.0198 3.1233 340.4141 178.2980 7.4349 16.0515 349.2140 5.8509 6.0641 349.9564 21.2188 328.2300 18.9349 345.0789 5.0650 13.6557 340.3945 356.3684 21.4127 15.0801 36.8412 285.7374 72.5082 336.8844 327.3373 93.5204 2.0767 37.0880 14.8383 358.2369 347.4343 73.0332 37.9080 338.9285 338.8401 351.5494 40.2078 265.1773 337.0570 31.8725 5.8562 0.1271 0.8400 349.0229 44.7915 356.9142 347.9237 353.4537 29.3616 358.9261 307.4053 359.2146 9.7742 50.8989 347.6216 4.8952 339.0797 343.9841 
-6.5014 84.5535 116.5027 3.0658 340.4894 177.4643 7.5122 16.5275 349.6217 5.7354 6.3556 350.3961 21.0843 328.1739 19.0954 345.1277 4.2214 13.7452 340.2647 356.2165 22.0085 13.5115 38.5588 287.0154 70.4660 336.7954 325.9167 94.7553 1.9226 35.7329 15.9182 358.1475 347.8254 71.2272 38.3297 341.5394 337.7806 351.1784 41.1625 261.5747 337.2694 29.7358 6.3206 358.6294 1.7981 347.5733 48.8162 357.5439 349.7085 354.6348 29.2410 0.1545 308.1627 359.2996 8.9000 52.1637 350.1299 358.6124 339.6519 343.1543 
-6.2348 84.1741 114.9692 3.1458 340.5907 176.5326 7.6880 17.1103 350.0722 5.5961 6.5382 350.9137 20.8127 328.1298 19.1607 345.2722 3.3382 13.7781 340.1865 356.1202 22.3108 11.4965 40.4050 288.5516 68.3389 336.8581 324.8308 95.8941 1.8177 34.1917 17.1791 358.0397 348.1301 69.3936 38.6511 344.4831 336.6407 350.5887 42.1392 258.5218 337.0116 27.8622 7.2717 355.9584 0.8634 342.7177 54.2444 1.3800 351.5307 354.6171 29.7337 1.1053 308.1005 359.6030 8.5527 54.4048 351.7426 1.9640 336.6824 342.5848 
